<svg xmlns="http://www.w3.org/2000/svg" viewBox="0 0 4000 4000"><defs><style>.cls-1{fill:#dddad3;}.cls-2{fill:#c6bdac;}.cls-3{fill:#493005;}.cls-4{fill:#750b4f;}.cls-5{fill:#941863;}.cls-6{fill:#ad277d;}.cls-7{fill:none;}.cls-8{fill:#f99d4b;}.cls-9{fill:#dd7212;}.cls-10{fill:#ff8f1a;}.cls-11{fill:#9db730;}.cls-12{fill:#c7e259;}.cls-13{fill:#819b18;}.cls-14,.cls-17{fill:#b5a88f;}.cls-14,.cls-15{fill-rule:evenodd;}.cls-15,.cls-16{fill:#c6bba5;}.cls-18{fill:#f5f5f5;}</style></defs><g id="SKY"><rect class="cls-1" width="4000" height="4000"/><rect class="cls-1" width="4000" height="3251.11"/><ellipse class="cls-2" cx="2000" cy="2535.36" rx="1745.84" ry="86.79"/><path class="cls-3" d="M603.06,2994.78a61.22,61.22,0,0,1-43.34,17.85c-40.1,0-61-28.05-61.18-60.18-.34-31.79,20.4-61.54,61.18-61.54a61.22,61.22,0,0,1,43.34,17.85l-6.29,5.44a52,52,0,0,0-37-15.13c-34.67,0-52.51,24.48-52.34,53,.34,27.88,18,52,52.34,52A53.15,53.15,0,0,0,596.94,2989Z"/><path class="cls-3" d="M713.87,3011.27,700.78,2982h-71l-12.91,29.24H607l53.36-119h10l53.37,119Zm-16.66-37.74-32-72.42-32,72.42Z"/><path class="cls-3" d="M833.85,3011.27H821.78l-41.12-45.05H748.19v45.05H739v-119h52.34c25.83,0,38.92,18.53,39.09,37.06.17,19.38-12.57,36.38-38.58,36.38Zm-85.66-53.72h42.15c20.74,0,29.91-11.73,30.08-28.39.17-13.94-9.34-28.39-29.06-28.39H748.19Z"/><path class="cls-3" d="M948.9,2950.41c.68,30.26-18.69,60.86-60.33,60.86H848.29v-119h40.28C928.85,2892.27,948.22,2921.17,948.9,2950.41Zm-91.43-49.47v101.49h31.1c35.35,0,51.67-26.52,51.16-52-.51-24.82-16.83-49.47-51.16-49.47Z"/><path class="cls-3" d="M971.67,3011.27v-119h9v119Z"/><path class="cls-3" d="M1125.31,2951.94c-.17,31.28-20.06,61.37-60,61.37s-60-30.26-60-61.71c0-32,19.89-61.2,60-61.2S1125.48,2919.81,1125.31,2951.94Zm-111-.17c.17,26.86,17.17,53,51,53,34,0,51.15-26.18,51.15-53,0-27.54-17-52.87-51.15-52.87S1014.16,2923.72,1014.33,2951.77Z"/><path class="cls-3" d="M1156.24,2970.13v41.14h-9.18v-119h52.17c51.67,0,51.67,77.86,0,77.86Zm0-69.36v61h43c39.6,0,39.6-61,0-61Z"/><path class="cls-3" d="M1349.3,2892.27v73.95c0,62.22-91.09,62.39-91.09,0v-73.95h9v73.95c0,51.17,73.08,51,73.08,0v-73.95Z"/><path class="cls-3" d="M1383.46,2892.27V3002.6h67v8.67h-76.14v-119Z"/><path class="cls-3" d="M1571.59,2905.53l-45.54,69.7H1523l-45.89-69.7v105.74h-9.18v-119h10.88l45.55,69.36,45-69.36h11.22v119h-9Z"/><path class="cls-3" d="M1721.66,2951.94c-.17,31.28-20.05,61.37-60,61.37s-60-30.26-60-61.71c0-32,19.89-61.2,60-61.2S1721.83,2919.81,1721.66,2951.94Zm-111-.17c.17,26.86,17.17,53,51,53,34,0,51.15-26.18,51.15-53,0-27.54-17-52.87-51.15-52.87S1610.51,2923.72,1610.68,2951.77Z"/><path class="cls-3" d="M1747.49,2892.27l80,98.43v-98.43h9v119H1833L1752.76,2913v98.26h-9.18v-119Z"/><path class="cls-3" d="M1957.72,3011.27,1944.63,2982h-71l-12.92,29.24h-9.85l53.36-119h10l53.36,119Zm-16.66-37.74-32-72.42-31.95,72.42Z"/><path class="cls-3" d="M2077.7,3011.27h-12.07l-41.13-45.05H1992v45.05h-9.17v-119h52.34c25.83,0,38.92,18.53,39.09,37.06.17,19.38-12.58,36.38-38.58,36.38ZM1992,2957.55h42.15c20.74,0,29.91-11.73,30.08-28.39.17-13.94-9.34-28.39-29.06-28.39H1992Z"/><path class="cls-3" d="M2129.19,2963.67l-46.4-71.23v-.17h10.71l40.28,62.56,40.45-62.56h10.71v.17l-46.57,71.23v47.6h-9.18Z"/><path class="cls-3" d="M2343.33,3011.27h-12.07l-41.13-45.05h-32.46v45.05h-9.18v-119h52.35c25.83,0,38.92,18.53,39.09,37.06.17,19.38-12.58,36.38-38.58,36.38Zm-85.66-53.72h42.15c20.73,0,29.91-11.73,30.08-28.39.17-13.94-9.35-28.39-29.06-28.39h-43.17Z"/><path class="cls-3" d="M2367.63,2947.18h69.68v8.33h-69.68v46.92h75.12v8.84h-84.13v-119h82.09v8.67h-73.08Z"/><path class="cls-3" d="M2543.7,2915.22c-8.67-13.94-22.61-16-36-16.15-13.94,0-36,5.1-36,24.14,0,15.13,16.31,18.7,36.37,22.44,22.94,4.42,46.73,8.5,46.73,34.17-.17,26.86-27.19,33.32-47.07,33.32-18.53,0-39.6-7.65-48.78-25.84l8.16-4.08c7.31,14.45,26,21.59,40.62,21.59s37.9-4.08,37.9-25.16c.17-17.85-19.55-21.76-39.09-25.5-21.76-4.25-44-8.67-44-30.6-.51-25.16,25.66-33,45.21-33,17,0,31.78,2.72,43.5,20.23Z"/><path class="cls-3" d="M2665.21,2892.27v73.95c0,62.22-91.09,62.39-91.09,0v-73.95h9v73.95c0,51.17,73.08,51,73.08,0v-73.95Z"/><path class="cls-3" d="M2767.35,2915.22c-8.67-13.94-22.6-16-36-16.15-13.94,0-36,5.1-36,24.14,0,15.13,16.32,18.7,36.37,22.44,22.94,4.42,46.74,8.5,46.74,34.17-.17,26.86-27.2,33.32-47.08,33.32-18.53,0-39.6-7.65-48.78-25.84l8.16-4.08c7.31,14.45,26,21.59,40.62,21.59s37.9-4.08,37.9-25.16c.17-17.85-19.55-21.76-39.09-25.5-21.75-4.25-44-8.67-44-30.6-.51-25.16,25.67-33,45.21-33,17,0,31.78,2.72,43.51,20.23Z"/><path class="cls-3" d="M2896,2994.78a61.22,61.22,0,0,1-43.34,17.85c-40.1,0-61-28.05-61.18-60.18-.34-31.79,20.4-61.54,61.18-61.54a61.22,61.22,0,0,1,43.34,17.85l-6.29,5.44a52,52,0,0,0-37.05-15.13c-34.67,0-52.51,24.48-52.34,53,.34,27.88,18,52,52.34,52a53.15,53.15,0,0,0,37.22-15.13Z"/><path class="cls-3" d="M2917.75,3011.27v-119h9v119Z"/><path class="cls-3" d="M2992.19,2900.6h-43v-8.16h95.18v8.16h-43v110.67h-9.18Z"/><path class="cls-3" d="M3156.36,3011.27,3143.27,2982h-71l-12.91,29.24h-9.86l53.37-119h10l53.37,119Zm-16.65-37.74-32-72.42-31.95,72.42Z"/><path class="cls-3" d="M3195.79,2900.6h-43v-8.16H3248v8.16h-43v110.67h-9.17Z"/><path class="cls-3" d="M3265.46,3011.27v-119h9v119Z"/><path class="cls-3" d="M3419.1,2951.94c-.17,31.28-20.06,61.37-60,61.37s-60-30.26-60-61.71c0-32,19.89-61.2,60-61.2S3419.27,2919.81,3419.1,2951.94Zm-111-.17c.17,26.86,17.17,53,51,53,34,0,51.15-26.18,51.15-53,0-27.54-17-52.87-51.15-52.87S3308,2923.72,3308.12,2951.77Z"/><path class="cls-3" d="M3444.93,2892.27,3525,2990.7v-98.43h9v119h-3.57L3450.2,2913v98.26H3441v-119Z"/><path class="cls-4" d="M404.65,2243.86c90.44,167.59,265.39,289.86,542.79,289.86,168.34,0,323.36-55,443.37-173.4l-150-151.72C1164.12,2285.3,1049.11,2327,947.44,2327c-120,0-209.35-34.94-273-89.66-25.18,3.76-48.32,6-68.64,6.06Q504.26,2243.76,404.65,2243.86Z"/><path class="cls-5" d="M545.73,1931.83c-1.66-195.07,120-405.15,401.71-405.15,101.67,0,205,35,281.69,110L1375.81,1495c-1.42-1.39-2.86-2.74-4.28-4.12-304.57-1.47-596.68-2.05-873.33-1.24-114.8,117.59-170,280.59-169.15,442.19.6,109.22,24.74,217.79,75.6,312q99.6-.11,201.19-.48c20.32-.08,43.46-2.3,68.64-6.06C585.22,2160.53,546.71,2044.77,545.73,1931.83Z"/><path class="cls-6" d="M1371.53,1490.88c-119.29-115.62-267.61-174.28-424.09-174.28-198.35,0-347.28,68.62-449.24,173C774.85,1488.83,1067,1489.41,1371.53,1490.88Z"/><path class="cls-7" d="M2080.43,1540H1738.35v428.6h342.08C2372.41,1968.61,2370.68,1540,2080.43,1540Z"/><path class="cls-8" d="M2269.89,1461.42q73.14-.29,147.71-.42c-74-83-186.37-138.74-337.17-138.74-190,0-380.09,1.73-570.14,1.73v138.5Q1873.05,1462.93,2269.89,1461.42Z"/><path class="cls-9" d="M1510.29,2533.72h228.06V2240.77q-115.55-.66-228.06-1.7Z"/><path class="cls-10" d="M1738.35,2240.77v-63.06h342.08c441.36,0,553-474.5,337.17-716.71q-74.55.15-147.71.42-396.58,1.49-759.6,1.07v776.58Q1622.8,2240.11,1738.35,2240.77Zm0-700.76h342.08c290.25,0,292,428.6,0,428.6H1738.35Z"/><path class="cls-11" d="M3342.08,2106.8c229.77-46.66,305.78-214.27,305.78-380.17,0-91.4-28.72-179.16-84.85-249.15-315.47-2.83-624.82-5.64-925.77-8V2207q113.27-3.79,228-7.8V2131h219.4l51.13,58.67q134.7-4.77,271.24-9.6Zm-476.8-181.44V1538.27h347.23c143.39,0,207.31,96.77,207.31,193.55s-62.19,193.54-207.31,193.54Z"/><path class="cls-12" d="M3212.51,1325.72c-191.75,0-383.51-1.73-575.27-1.73v145.45c301,2.4,610.3,5.21,925.77,8C3490.72,1387.35,3373,1326.69,3212.51,1325.72Z"/><path class="cls-13" d="M3407.05,2180.07q-136.53,4.82-271.24,9.6l301.29,345.69h271.22V2519.8Z"/><path class="cls-13" d="M2637.24,2535.36h228V2199.17q-114.77,4-228,7.8Z"/><path class="cls-5" d="M1929.14,3132.28a30,30,0,1,1-30-30A30,30,0,0,1,1929.14,3132.28Z"/><path class="cls-10" d="M2043.45,3132.28a30,30,0,1,1-30-30A30,30,0,0,1,2043.45,3132.28Z"/><path class="cls-13" d="M2157.77,3132.28a30,30,0,1,1-30-30A30,30,0,0,1,2157.77,3132.28Z"/><path class="cls-14" d="M3009.82,1612.21c-60.94,46.82-74,130.69-34.82,196l119.92-93.21a844.82,844.82,0,0,1-78.4-107.6C3014.26,1609,3012,1610.55,3009.82,1612.21Z"/><path class="cls-15" d="M3016.52,1607.45a844.82,844.82,0,0,0,78.4,107.6l109.86-85.39C3155.51,1578.25,3075,1568.28,3016.52,1607.45Z"/><path class="cls-15" d="M3212.44,1830.52c41.71-47.78,46.9-119,12-174.75l-107.84,83.73A981.53,981.53,0,0,0,3212.44,1830.52Z"/><path class="cls-14" d="M3116.58,1739.5l-120.85,93.82c51.17,54.45,136.11,62.06,194.95,17.42a141.8,141.8,0,0,0,21.76-20.22A981.53,981.53,0,0,1,3116.58,1739.5Z"/><path class="cls-16" d="M3667.21,590.19a199.18,199.18,0,0,0-6.56-21.92L3431.74,155.44,3325.25,376.27c67.2,63.49,158,100.79,240.59,155.46A885.24,885.24,0,0,0,3667.21,590.19Z"/><path class="cls-17" d="M3565.84,531.73c-82.56-54.67-173.39-92-240.59-155.46l-98.09,203.41C3187.67,727,3330.71,839.74,3450.8,836.61c114.15-3,249-109.44,216.41-246.42A885.24,885.24,0,0,1,3565.84,531.73Zm21.57,165.08c-30,44-85.42,74.49-137.91,75.91a24.06,24.06,0,0,1-1.26-48.1c37.2-.93,78.14-23.54,99.44-54.88,11.85-17.34,23.22-45.47,10.27-81.2a24,24,0,0,1,45.16-16.4C3618.64,614.92,3613.09,659.22,3587.41,696.81Z"/><path class="cls-17" d="M579.39,279.48c-20.9,23.06-31,42.16-31,42.16S476.52,186.37,321.27,201c-103.6,9.76-176.38,141.37-120.57,290.63H340.61l84.76-211.9,64.83,273,36.64-61.07H715q-3.4-5.08-6.78-10.25C662.77,411.34,618.65,347.38,579.39,279.48Z"/><path class="cls-16" d="M775.42,201c-96.91-9.13-161.32,40.15-196,78.48,39.26,67.9,83.38,131.86,128.86,201.9q3.38,5.17,6.78,10.25H896C951.81,342.37,879,210.76,775.42,201Z"/><path class="cls-17" d="M746.68,535.67H551.77l-79.44,132.4L414.64,425.13,370.42,535.67H220.77c50,92.82,151.76,188.44,327.58,263C672.9,745.86,760.26,682.47,818.41,617A792.1,792.1,0,0,1,746.68,535.67Z"/><path class="cls-16" d="M746.68,535.67A792.1,792.1,0,0,0,818.41,617c23.94-27,42.93-54.25,57.52-81.32Z"/><path class="cls-17" d="M1948.88,277.3c-15.2,0-27.52,13.58-27.52,30.32S1933.68,338,1948.88,338h38.72c-13.13-20.05-25.51-40.05-36.54-60.65Z"/><path class="cls-16" d="M2206.79,307.62c0-16.74-12.31-30.32-27.52-30.32h-54.7A51,51,0,0,1,2107,238.87c-.94-49.4-29-54.73-44.05-54.73s-43.11,5.33-44,54.73c-.33,17.21-7.6,29.48-17.53,38.43h-50.34c11,20.6,23.41,40.6,36.54,60.65h191.67C2194.48,338,2206.79,324.37,2206.79,307.62ZM2063,260.57a29.07,29.07,0,1,1,29-29.06A29,29,0,0,1,2063,260.57Z"/><path class="cls-16" d="M2327.13,371.74c0-47.33-37.05-85.84-82.58-85.84a22.39,22.39,0,0,0,0,44.77c20.85,0,37.81,18.42,37.81,41.07V697.56q22.28,17.12,44.77,33.34Z"/><path class="cls-17" d="M2282.36,697.56V858c0,22.64-17,41.07-37.81,41.07H1883.61c-20.85,0-37.81-18.43-37.81-41.07V371.74c0-22.65,17-41.07,37.81-41.07a22.39,22.39,0,0,0,0-44.77c-45.53,0-82.57,38.51-82.57,85.84V858c0,47.33,37,85.83,82.57,85.83h360.94c45.53,0,82.58-38.5,82.58-85.83V730.9Q2304.61,714.69,2282.36,697.56Z"/><path class="cls-16" d="M2215.8,359.37c21.73,0,39.41,18.9,39.41,42.15V676.26q5.6,4.47,11.19,8.87V401.52c0-29.46-22.65-53.34-50.6-53.34H1994.35q3.7,5.58,7.48,11.19Z"/><path class="cls-17" d="M2255.21,676.26V830.45c0,23.24-17.68,42.15-39.41,42.15H1912.36c-21.73,0-39.41-18.91-39.41-42.15V401.52c0-23.25,17.68-42.15,39.41-42.15h89.47q-3.76-5.61-7.48-11.19h-82c-27.95,0-50.6,23.88-50.6,53.34V830.45c0,29.46,22.65,53.34,50.6,53.34H2215.8c27.95,0,50.6-23.88,50.6-53.34V685.13Q2260.79,680.74,2255.21,676.26Z"/><path class="cls-17" d="M1955.13,448.82h-32a6.35,6.35,0,0,0-6.35,6.35v31.95a6.35,6.35,0,0,0,6.35,6.35h32a6.34,6.34,0,0,0,6.34-6.35V455.17A6.34,6.34,0,0,0,1955.13,448.82Z"/><path class="cls-17" d="M1981.06,460.88a2.92,2.92,0,0,0-2.92,2.91V478.5a2.91,2.91,0,0,0,2.92,2.91h102.43q-6.93-10.19-13.83-20.53Z"/><path class="cls-16" d="M2209.64,478.5V463.79a2.92,2.92,0,0,0-2.91-2.91H2069.66q6.91,10.33,13.83,20.53h123.24A2.91,2.91,0,0,0,2209.64,478.5Z"/><path class="cls-17" d="M1922.75,554.34h32a6.35,6.35,0,0,1,6.35,6.35v32a6.35,6.35,0,0,1-6.35,6.35h-32a6.35,6.35,0,0,1-6.35-6.35v-32A6.34,6.34,0,0,1,1922.75,554.34Z"/><path class="cls-17" d="M1980.64,566.4a2.91,2.91,0,0,0-2.92,2.91V584a2.91,2.91,0,0,0,2.92,2.91h182q-8.68-10.14-17.05-20.53Z"/><path class="cls-17" d="M2209.22,584V569.31a2.91,2.91,0,0,0-2.92-2.91h-60.72q8.37,10.4,17.05,20.53h43.67A2.91,2.91,0,0,0,2209.22,584Z"/><path class="cls-17" d="M1923.6,659.86h32a6.34,6.34,0,0,1,6.34,6.34v32a6.35,6.35,0,0,1-6.35,6.35H1923.6a6.35,6.35,0,0,1-6.35-6.35v-32a6.34,6.34,0,0,1,6.34-6.34Z"/><path class="cls-17" d="M1981.48,671.92h225.66a2.92,2.92,0,0,1,2.92,2.92v14.7a2.91,2.91,0,0,1-2.91,2.91H1981.48a2.92,2.92,0,0,1-2.92-2.92v-14.7A2.92,2.92,0,0,1,1981.48,671.92Z"/><rect class="cls-17" x="1917.68" y="765.38" width="44.65" height="44.65" rx="6.35"/><path class="cls-17" d="M1981.9,777.44h225.66a2.92,2.92,0,0,1,2.92,2.92v14.7a2.91,2.91,0,0,1-2.91,2.91H1981.9a2.91,2.91,0,0,1-2.91-2.91v-14.7a2.92,2.92,0,0,1,2.92-2.92Z"/><path class="cls-17" d="M1976.77,1746.69q8.45,6.35,16.81,12.47V1822h89.05q14.67,10.14,29.42,20.34a83.93,83.93,0,0,1-18.53,2.08H1877.18a84.07,84.07,0,1,1,0-168.14h35.34C1930.48,1703.38,1949.75,1726.2,1976.77,1746.69Z"/><path class="cls-16" d="M2093.52,1676.32a84.06,84.06,0,0,1,18.53,166.06q-14.76-10.23-29.42-20.34h10.89a61.66,61.66,0,0,0,0-123.31h-99.94v60.43q-8.37-6.14-16.81-12.47c-27-20.49-46.29-43.31-64.25-70.37h181Z"/><path class="cls-17" d="M938.34,1910.45l8.62,5v75L881.56,2028l-46.18-26.55q-9.28,7-18.83,13.92L873,2047.63a10.5,10.5,0,0,0,13.39,2.58l71.19-40.66,65.88,37.61v75.07l-71.16,41.16a10.54,10.54,0,0,0,10.57,18.25l77-44.21c3.25-1.89,5.81-5.36,5.81-9.14v-82l70.54-40.58a10.47,10.47,0,0,0,3.67-14.38,10.69,10.69,0,0,0-14.51-3.92L1034.56,2028l-65.43-37.61v-75l65.38-37.6,70.93,40.63a10.39,10.39,0,0,0,14.25-3.91,10.52,10.52,0,0,0,1.33-5.23c0-3.66-1.39-7.22-4.8-9.16l-70.59-40.6v-82a10.57,10.57,0,0,0-3.76-8c-17.26,26.47-34.83,51.76-53.5,79.26A584.15,584.15,0,0,1,938.34,1910.45Z"/><path class="cls-16" d="M969.13,1727.78v-80.54c0-5.85-5.26-10.55-11.09-10.55s-11.08,4.7-11.08,10.55v80.54l-70.58,40.58c-3.28,1.9-4.8,5.39-4.8,9.16v82l-66.38,37.62-71.44-40.64a10.67,10.67,0,0,0-14.49,3.93c-2.9,5-.75,11.49,4.32,14.37l71.5,40.59v75L723.53,2031a10.61,10.61,0,0,0-4.17,14.37,10.4,10.4,0,0,0,14.26,3.94l71.16-40.65,11.77,6.72q9.54-6.95,18.83-13.92l-19.23-11.06v-75l65.41-37.6,56.78,32.65a584.15,584.15,0,0,0,50-61.7c18.67-27.5,36.24-52.79,53.5-79.26a11.16,11.16,0,0,0-1.59-1.13Z"/><path class="cls-16" d="M1176.34,870.29l8.57,18.06c-.09.61-.19,1.21-.25,1.83l-6.13-.1a4.07,4.07,0,0,0-4,4.17c0,2.15,1.65,4.59,3.82,4.63l6.27.28a44.28,44.28,0,0,0,3.59,13.38l-5.41,3a3.86,3.86,0,0,0-1.52,5.26,3.91,3.91,0,0,0,3.38,2,4,4,0,0,0,1.9-.48l5.38-3a44.15,44.15,0,0,0,10.69,11l-3.2,5.3a3.86,3.86,0,0,0,1.31,5.32,3.85,3.85,0,0,0,5.33-1.32l3.21-5.3a43.58,43.58,0,0,0,14.73,4.29l-.1,5.49c0,2.15,1.65,3.29,3.8,3.3h.06c2.13,0,3.85-1.06,3.9-3.18l.09-5.59a44,44,0,0,0,14.91-3.63l3,5.44a3.88,3.88,0,1,0,6.79-3.74l-3-5.38a43.53,43.53,0,0,0,11-10.69l5.32,3.21a4,4,0,0,0,2,.56,3.9,3.9,0,0,0,2-7.22l-5.33-3.2a46.67,46.67,0,0,0,4-13.41l6.41-.18h.07c2.11,0,3.84-2.15,3.89-4.27s-1.66-4.57-3.81-4.62H1273a43.78,43.78,0,0,0-3.67-15l5.4-2.95a3.87,3.87,0,1,0-3.74-6.77l-5.39,3a43.83,43.83,0,0,0-10.7-11l3.22-5.3a3.89,3.89,0,0,0-6.66-4l-3.2,5.3a44,44,0,0,0-12.39-3.93l-2.26-4.77,0-1.56a3.65,3.65,0,0,0-2.42-3.5l-54.9-115.74a31,31,0,0,0-32.8-17.23l-9.31-19.7a11.65,11.65,0,0,0-21.06,10l10.33,21.82a30.93,30.93,0,0,0-3.27,31.76l22,46.46c-13.73,8.22-27.36,17-40.68,26.51-7.39,5.33-14.71,10.86-22,16.86a456.7,456.7,0,0,0,43.88,59C1139.34,889.68,1157.7,879.51,1176.34,870.29Z"/><path class="cls-17" d="M1350.48,1179.78l-149.29-.24c.53-2.21,1.28-4.08,1.28-6.74l.06-38.8c0-29,10.61-67.43,17.78-90.28l39.37-16-3.66-2.13c-10-8.65-20.1-17.34-30.2-26.11l-61.52,25a19.38,19.38,0,0,0-12.07,16.85l-.48,8.21c-14.83,1.58-34.74-1-53.15-18.07q-16.42-29.26-14-61.31c.86-12.55,3.68-25.28,7.55-40.06a6.85,6.85,0,0,1,.18-.67c0,.06.06,0,.1,0l.25-.37.91-1.43a46.48,46.48,0,0,1,3.6-4.68,101.38,101.38,0,0,1,12.25-11.74c4.39-3.6,9.11-7.12,14.06-10.56a456.7,456.7,0,0,1-43.88-59c-6.35,5.26-12.64,10.87-18.85,17a167.32,167.32,0,0,0-19.47,22.83,107.57,107.57,0,0,0-8.88,15.21,80.94,80.94,0,0,0-3.74,9.31c-.58,1.7-1.09,3.43-1.53,5.25l-.66,2.76-.42,2.27c-2.68,15.81-5.32,34.1-4.84,52.94a166.29,166.29,0,0,0,10.73,56.23,178.71,178.71,0,0,0,28,48.13,260.73,260.73,0,0,0,51.12,47.59,36.92,36.92,0,0,0-2.73,12.62l-.08,38.8c0,2.66.92,4.53,1.47,6.74l-48.44-.07c-8,0-14,10.6-14,22.46l0,3.64c0,11.85,6,21.54,14,21.56l289.19.44c8,0,14.92-9.66,14.93-21.51v-3.65C1365.37,1190.42,1358.51,1179.78,1350.48,1179.78Z"/><path class="cls-16" d="M1259.68,1027.72c36.27-14.73,67.17-27.24,72.19-29.11a19.42,19.42,0,0,0-5.81-38c-4.2,0-4.87,0-100.24,38.82,10.1,8.77,20.21,17.46,30.2,26.11Z"/><path class="cls-17" d="M2781.88,979.38H2649.24a14.09,14.09,0,0,0-14.1,14.09v88.67a14.09,14.09,0,0,0,14.1,14.09h132.64v132.65A14.09,14.09,0,0,0,2796,1243h88.67a14.1,14.1,0,0,0,14.09-14.09V1096.23h86.44c-70.61-40.34-139.72-79.81-203.29-128.68Z"/><path class="cls-16" d="M3045.46,1082.14V993.47a14.09,14.09,0,0,0-14.09-14.09H2898.73V846.73a14.09,14.09,0,0,0-14.09-14.09H2796a14.09,14.09,0,0,0-14.09,14.09V967.55c63.57,48.87,132.68,88.34,203.29,128.68h46.2A14.09,14.09,0,0,0,3045.46,1082.14Z"/><path class="cls-16" d="M3123.26,319.67a62.32,62.32,0,0,0-95.77-52.58A101.49,101.49,0,0,0,2868,197.75a114.86,114.86,0,0,0-218.23-9.24,90.4,90.4,0,0,0-135.61,68.85h-.46a62.33,62.33,0,1,0,0,124.65H3064.2v-.09A62.33,62.33,0,0,0,3123.26,319.67Z"/><path class="cls-18" d="M3142.55,301.12a62.31,62.31,0,0,0-95.76-52.58,101.5,101.5,0,0,0-159.5-69.35A114.86,114.86,0,0,0,2669.06,170a90.4,90.4,0,0,0-135.61,68.86H2533a62.33,62.33,0,0,0,0,124.65h550.51v-.09A62.32,62.32,0,0,0,3142.55,301.12Z"/><path class="cls-16" d="M1605.48,480.84a71.13,71.13,0,0,0-113.17-57.4c-11.69-51.78-79.68-116.17-161.83-116.17-90.37,0-163.62,77.91-163.62,131.24,0,.93.07,1.84.11,2.75A56.86,56.86,0,1,0,1148.71,552h389.52v-.1A71.16,71.16,0,0,0,1605.48,480.84Z"/><path class="cls-18" d="M1651.21,459.47A71.13,71.13,0,0,0,1538,402.08c-11.68-51.78-79.68-116.18-161.84-116.18-90.36,0-163.62,77.92-163.62,131.25,0,.93.08,1.84.12,2.75a56.87,56.87,0,1,0-18.26,110.72H1584v-.12A71.13,71.13,0,0,0,1651.21,459.47Z"/><path class="cls-16" d="M3690.79,1163.7a60,60,0,0,0-95.51-48.43c-9.86-43.7-67.24-98-136.57-98-76.26,0-138.08,65.75-138.08,110.75,0,.78.07,1.56.1,2.32a48,48,0,1,0-15.41,93.43H3634v-.08A60,60,0,0,0,3690.79,1163.7Z"/><path class="cls-18" d="M3729.38,1145.67a60,60,0,0,0-95.5-48.43c-9.86-43.7-67.25-98-136.58-98-76.26,0-138.08,65.75-138.08,110.76,0,.78.07,1.55.1,2.32a48,48,0,1,0-15.41,93.43h328.72v-.09A60,60,0,0,0,3729.38,1145.67Z"/><path class="cls-16" d="M718.23,1200.89a77.36,77.36,0,0,0-123.09-62.42c-12.7-56.32-86.66-126.35-176-126.35-98.29,0-178,84.74-178,142.75,0,1,.09,2,.13,3a61.84,61.84,0,1,0-19.86,120.41H645.09v-.11A77.38,77.38,0,0,0,718.23,1200.89Z"/><path class="cls-18" d="M768,1177.66a77.37,77.37,0,0,0-123.09-62.42c-12.71-56.32-86.66-126.36-176-126.36-98.28,0-178,84.75-178,142.75,0,1,.09,2,.14,3A61.85,61.85,0,1,0,271.17,1255H694.82v-.12A77.38,77.38,0,0,0,768,1177.66Z"/><path class="cls-16" d="M2485.32,1210.44a55.13,55.13,0,0,0-87.73-44.49c-9.06-40.15-61.77-90.07-125.46-90.07-70.06,0-126.84,60.4-126.84,101.75,0,.72.05,1.42.08,2.13a44.08,44.08,0,1,0-14.15,85.83h302v-.08A55.15,55.15,0,0,0,2485.32,1210.44Z"/><path class="cls-18" d="M2520.78,1193.88a55.16,55.16,0,0,0-87.74-44.5c-9.05-40.13-61.77-90.06-125.46-90.06-70.06,0-126.85,60.4-126.85,101.75,0,.72.06,1.42.1,2.13a44.08,44.08,0,1,0-14.16,85.83h302V1249A55.16,55.16,0,0,0,2520.78,1193.88Z"/></g></svg>