<svg id="Layer_1" data-name="Layer 1" xmlns="http://www.w3.org/2000/svg" viewBox="0 0 400 400"><defs><style>.cls-1{fill:#e34498;}.cls-2{fill:#b678f2;}.cls-3{fill:#f77790;}.cls-4{fill:#e96e67;}.cls-5{fill:#fb288a;}.cls-6{fill:#2aa8e2;fill-rule:evenodd;}</style></defs><g id="background"><path class="cls-1" d="M102,12.89h-1.56V5.59a1.31,1.31,0,1,0-2.62,0V31.45a1.31,1.31,0,1,0,2.62,0V15.52H102a7.32,7.32,0,0,1,7.31,7.3v8.62a1.31,1.31,0,1,0,2.62,0V22.82A10,10,0,0,0,102,12.89Z" transform="translate(-97.83 91.99)"/><path class="cls-1" d="M110.62,35.41a1.32,1.32,0,1,0,1.32,1.32A1.32,1.32,0,0,0,110.62,35.41Z" transform="translate(-97.83 91.99)"/><path class="cls-2" d="M123.59,15.54a7.49,7.49,0,0,1,6.59,7.52v8.37a1.31,1.31,0,1,0,2.62,0V23.19a10.19,10.19,0,0,0-9.75-10.32h-.19a9.94,9.94,0,1,0,.37,19.87,1,1,0,0,0,.94-1v-.59a1,1,0,0,0-1.07-1A7.41,7.41,0,0,1,117.75,28a7.22,7.22,0,0,1-2.2-5.23,7.3,7.3,0,0,1,8-7.27Z" transform="translate(-97.83 91.99)"/><path class="cls-2" d="M131.49,35.41a1.32,1.32,0,1,0,1.32,1.32A1.32,1.32,0,0,0,131.49,35.41Z" transform="translate(-97.83 91.99)"/><path class="cls-1" d="M138,12.88h-1.55a2.64,2.64,0,0,0-2.64,2.64V31.45a1.32,1.32,0,0,0,2.63,0V15.51H138a7.32,7.32,0,0,1,7.31,7.3v8.63a1.32,1.32,0,0,0,2.63,0V22.81A10,10,0,0,0,138,12.88Z" transform="translate(-97.83 91.99)"/><path class="cls-1" d="M167.38,4.27a1.32,1.32,0,0,0-1.31,1.32V22.83a7.31,7.31,0,0,1-14.62,0,7.2,7.2,0,0,1,2.12-5.18,7.58,7.58,0,0,1,5.24-2.17,1.19,1.19,0,0,0,.87-.36,1.34,1.34,0,0,0,.39-.95,1.28,1.28,0,0,0-1.18-1.32h-.15a9.94,9.94,0,1,0,10,9.94V5.58A1.32,1.32,0,0,0,167.38,4.27Z" transform="translate(-97.83 91.99)"/><path class="cls-1" d="M167.38,1.62A1.32,1.32,0,1,0,166.06.3,1.31,1.31,0,0,0,167.38,1.62Z" transform="translate(-97.83 91.99)"/><path class="cls-2" d="M187.65,22a5.58,5.58,0,0,0-4-1.73H175a3,3,0,0,1,0-6h11.49a1.32,1.32,0,0,0,0-2.63H175a5.62,5.62,0,0,0-.07,11.24h8.68a3,3,0,0,1,0,6h-11.5a1.31,1.31,0,1,0,0,2.62H183.3a5.83,5.83,0,0,0,5.9-5.43A5.51,5.51,0,0,0,187.65,22Z" transform="translate(-97.83 91.99)"/><path class="cls-3" d="M210.13,13.24a9.93,9.93,0,1,0,6.94,12.22A9.94,9.94,0,0,0,210.13,13.24Zm-4.59,16.62a7.31,7.31,0,1,1,9-5.1A7.32,7.32,0,0,1,205.54,29.86Z" transform="translate(-97.83 91.99)"/><path class="cls-1" d="M223.53,12.88H222a2.65,2.65,0,0,0-2.64,2.64V31.45a1.32,1.32,0,0,0,2.63,0V15.51h1.56a7.32,7.32,0,0,1,7.31,7.3v8.63a1.32,1.32,0,0,0,2.63,0V22.81A10,10,0,0,0,223.53,12.88Z" transform="translate(-97.83 91.99)"/><path class="cls-4" d="M131.59,45.12l-.37-.36a9.14,9.14,0,0,0-3.87-2.48,9.94,9.94,0,0,0-13.14,8.62l0,.32a10,10,0,0,0,11.15,10.33l.58-.11a1.07,1.07,0,0,0,.81-.62,1,1,0,0,0-.08-1l-.31-.49a1.15,1.15,0,0,0-1.16-.47,7.27,7.27,0,0,1-8-9.57,7.31,7.31,0,0,1,9.28-4.53,7.56,7.56,0,0,1,1.47.7s2.94,1.63.27,3.47l-.1.06a.69.69,0,0,1-.13.11l-2.14,1.4a1.31,1.31,0,0,0-.38,1.82,1.24,1.24,0,0,0,.82.6,1.2,1.2,0,0,0,.94-.18l3.58-2.34a3.58,3.58,0,0,0,.77-5.3Z" transform="translate(-97.83 91.99)"/><path class="cls-2" d="M144.54,44.39a7.49,7.49,0,0,1,6.59,7.52v8.37a1.31,1.31,0,1,0,2.62,0V52A10.19,10.19,0,0,0,144,41.72h-.19a9.94,9.94,0,1,0,.37,19.87,1,1,0,0,0,.94-1V60a1,1,0,0,0-1.07-1,7.41,7.41,0,0,1-5.35-2.07,7.22,7.22,0,0,1-2.2-5.23,7.35,7.35,0,0,1,2.39-5.41A7.47,7.47,0,0,1,144.54,44.39Z" transform="translate(-97.83 91.99)"/><path class="cls-2" d="M152.43,64.26a1.32,1.32,0,1,0,1.32,1.32A1.32,1.32,0,0,0,152.43,64.26Z" transform="translate(-97.83 91.99)"/><path class="cls-1" d="M165,42a1.18,1.18,0,0,0-1.09-.17,9.93,9.93,0,0,0-6.71,9.4v8.62a1.32,1.32,0,0,0,2.63,0V51.2a7.3,7.3,0,0,1,4.91-6.9,1.29,1.29,0,0,0,.84-1.22A1.36,1.36,0,0,0,165,42Z" transform="translate(-97.83 91.99)"/><path class="cls-1" d="M158.55,63.79a1.32,1.32,0,1,0,1.32,1.32A1.32,1.32,0,0,0,158.55,63.79Z" transform="translate(-97.83 91.99)"/><path class="cls-4" d="M178.88,61.14a1.57,1.57,0,0,0,1.14-.45,1.63,1.63,0,0,0,.5-1.17,1,1,0,0,0-.31-.72,1,1,0,0,0-.76-.29h0a7.39,7.39,0,0,1-5.35-2.08,7.2,7.2,0,0,1-2.2-5.23V46.77h4.43a1.32,1.32,0,0,0,0-2.63H171.9V36.83a1.31,1.31,0,0,0-2.62,0V51.2A10,10,0,0,0,178.88,61.14Z" transform="translate(-97.83 91.99)"/><path class="cls-2" d="M199.11,51.85a5.58,5.58,0,0,0-4-1.73h-8.68a3,3,0,0,1,0-6h11.49a1.31,1.31,0,0,0,1.31-1.31,1.32,1.32,0,0,0-1.31-1.32H186.43a5.62,5.62,0,0,0-.07,11.24H195a3,3,0,0,1,0,6h-11.5a1.31,1.31,0,1,0,0,2.62h11.21a5.83,5.83,0,0,0,5.9-5.43A5.54,5.54,0,0,0,199.11,51.85Z" transform="translate(-97.83 91.99)"/><path class="cls-1" d="M102,42.71h-1.56v-7.3a1.31,1.31,0,1,0-2.62,0V61.27a1.31,1.31,0,1,0,2.62,0V45.34H102a7.32,7.32,0,0,1,7.31,7.3v8.62a1.31,1.31,0,1,0,2.62,0V52.64A10,10,0,0,0,102,42.71Z" transform="translate(-97.83 91.99)"/><path class="cls-1" d="M110.62,65.23a1.32,1.32,0,1,0,1.32,1.32A1.32,1.32,0,0,0,110.62,65.23Z" transform="translate(-97.83 91.99)"/></g><g id="logo"><path class="cls-5" d="M147.29-75.28c-8.66-3.19-19.13-1.89-26.36,4C109.72-62.24,109.7-47,117-35.48a43.1,43.1,0,0,0,5.21,6.59l.14,0c4.12-.48,11,2.47,14.94,4a68.54,68.54,0,0,0,9.22,3.13,8.61,8.61,0,0,0,1.15.17q-1.8-.91-3.57-1.92c-8.24-4.68-14.45-10.64-18.3-16.75C115.27-56.95,130.84-75,155-58.68c2.32-14.19,9.14-18.59,16.09-18.52,22.21.23,21.31,39,9.16,53.54,17.56-10.88,25.62-49.17,5.4-63.77a23.77,23.77,0,0,0-17.39-4.33c-9.23,1.26-17.35,8-21,16.48Z" transform="translate(-97.83 91.99)"/><path class="cls-6" d="M199.68,11.62c-.56-25.66-16.48-33.61-38-32-6.41.48-11.41,2.57-15.93,1.54-7.12-1.61-18.33-7.6-23.12-7-6.9.8-2.58,5.12-2.58,5.12s12.58,8.35,14.13,9.09,7.88,2.71,9.43,2.48c-1.38.69-5.9-.16-10.2-1.55a20.33,20.33,0,0,1-4-2.4c-6.16-4-10.66-5.74-12.25-8.54s1.34-4.22,1.34-4.22-4.18-4.13-8-13.53c-2.4-5.92-7.28-6.69-8.6-4.91-.59.8,1.57,5.06,2.19,6.6,2.69,6.7,6,18.28,9.71,22,4.69,4.75,15.17,16.4,25,19.11,27.25,7.55,37.57-10.49,60.82,8.21Z" transform="translate(-97.83 91.99)"/><path class="cls-5" d="M165.73-52.22a13.71,13.71,0,0,0-13.12,2c-11.5,9.31.24,26.05,13.71,24.93-.74-.37-1.48-.76-2.21-1.17a25.59,25.59,0,0,1-9.1-8.33c-5.22-8.28,2.53-17.24,14.54-9.14,1.15-7.06,4.55-9.25,8-9.21,11,.12,10.6,19.39,4.56,26.64,8.74-5.42,12.75-24.47,2.68-31.73a11.82,11.82,0,0,0-8.65-2.16,13.69,13.69,0,0,0-10.41,8.19Z" transform="translate(-97.83 91.99)"/></g></svg>
