<?xml version="1.0" encoding="utf-8"?>
<!-- Generator: Adobe Illustrator 25.2.0, SVG Export Plug-In . SVG Version: 6.00 Build 0)  -->
<svg version="1.1" id="_x2014_ÎÓÈ_x5F_1" xmlns="http://www.w3.org/2000/svg" xmlns:xlink="http://www.w3.org/1999/xlink"
	 x="0px" y="0px" viewBox="0 0 200 200" style="enable-background:new 0 0 200 200;" xml:space="preserve">
<style type="text/css">
	.st0{fill:#FFFFFF;}
	.st1{clip-path:url(#SVGID_2_);}
	.st2{fill:#E83121;}
</style>
<rect class="st0" width="200" height="200"/>
<g>
	<g>
		<defs>
			<path id="SVGID_1_" d="M67.87,36.23c-10.15,0-19.79,3.76-27.3,10.68c-16.34,15.07-17.37,40.63-2.29,56.97L100,170.77l61.72-66.89
				c15.07-16.34,14.04-41.89-2.29-56.97c-7.92-7.3-18.2-11.08-28.96-10.65c-10.76,0.43-20.71,5.03-28.01,12.95L100,51.87l-2.46-2.66
				c-7.3-7.92-17.25-12.51-28.01-12.95C68.98,36.24,68.42,36.23,67.87,36.23z"/>
		</defs>
		<clipPath id="SVGID_2_">
			<use xlink:href="#SVGID_1_"  style="overflow:visible;"/>
		</clipPath>
		<g class="st1">
			<g>
				<g>
					<path class="st2" d="M125.89,115.61c0.91-3.94,0.38-3.54,0.98-5.45c1.17-3.73,3.15-5.7,5.01-8.53
						c1.86-2.83,3.13-5.38,4.71-8.16c0.68-1.2,1.52-2.7,1.99-3.73c0.77-1.7,1.32-2.16,1.47-4.03c0.07-0.83-0.34-2.61-1.43-3.08
						c-1.22-0.52-2.66-0.22-3.8,0.7c-1.95,1.56-2.86,4.18-4.35,6.52c-0.33,0.52-1.48,2.59-2.09,3.45c-1.33,1.85-2.84,3.35-4.26,5.31
						c-0.74,1.01-1.4,2.44-2.84,3.16c-0.31,0.15-1.34,0.6-2.02,0.34c-1.2-0.46-1.68-0.96-1.24-2.45c0.18-0.59,0.58-1.81,0.83-2.42
						c1.77-4.21,2.99-9.03,3.94-13.3c0.98-4.38,1.85-8.84,2.77-12.83c0.44-1.92,0.57-1.54,0.22-3.51c-0.08-0.44-1.48-2.2-2.44-2.42
						c-1.17-0.27-2.85,0.39-3.47,1.06c-0.62,0.67-0.84,1.57-0.92,1.9c-0.66,2.85-1.37,5.74-2.14,8.22
						c-1.55,5.02-3.1,8.72-4.71,13.95c-0.25,0.82-1.15,4.92-1.84,5.85c-0.4,0.53-0.73,0.1-0.86,0.07c-0.65-0.1-1.29-0.8-1.43-1.24
						c-0.82-2.41,0.03-3.54,0.31-6.76c0.07-0.8,0.08-10.57,0.02-11.51c-0.37-6-0.83-10.64-1.04-15.66c-0.07-1.6,0.22-0.85-0.27-2.16
						c-0.26-0.69-0.1-1.66-1.57-2.19c-1.81-0.66-4.84-1.21-5.68,3.13c-0.26,1.35-0.33,10.82-0.41,13.23
						c-0.13,4.12,0.76,16.92-1.62,19.47c-0.45,0.48-0.53,0.12-1.13-0.59c-2.06-2.45-2.23-5.2-3.47-9.14
						c-1-3.19-3.18-10.42-3.96-14.08c-0.58-2.75-0.29-5.01-1.66-7.1c-0.68-1.04-1.13-1.24-2.57-1.67c-0.13-0.04-2.81-0.41-3.16,0.9
						c-0.07,0.26-0.89,1.32-0.88,2.24c0.01,1.15-0.07,3.52,0.18,4.83c0.74,3.83,0.7,7.65,1.29,11.39c0.77,4.87,1.94,7.68,3.11,13.38
						c0.14,0.69,1.59,8.82,1.21,10.71c-0.31,1.58-0.96,3.09-1.58,4.2c-1.32,2.37-2.67,5.11-5.04,6.04c-3.17,1.24-5.5-0.74-7.86-1.97
						c-1.37-0.71-1.95-0.83-3.01-1.62c-3.28-2.46-7.16-2.53-10.63-1.55c-3.12,0.88-7.2,3.76-4.74,6.58
						c0.41,0.48,0.91,0.21,1.28,0.35c0.37,0.14,1.07,0.23,1.31,0.27c2.87,0.46,4.08,0.74,6.56,2.13c2.25,1.26,4.93,2.95,6.87,4.56
						c1.33,1.1,3.43,3.48,4.16,4.14c2.13,1.91,1.93,1.33,4.41,3.29c0.59,0.47,6.4,6.09,7.12,6.9c2.22,2.48,2.64,6.41,2.75,8.36
						c0.2,3.5-0.25,13.24-0.42,14.32c-0.52,3.23-0.94,7.97-0.45,8.56c6.69,8.14,26.01,6.24,31.3-2.53c0.6-0.99-0.59-4.92-1.38-7.42
						c-1.08-3.4-2.47-10.48-2-14.65c0.34-3.05,4.49-11.3,5.21-12.39C123.39,126.71,125.44,117.56,125.89,115.61z"/>
					<path class="st0" d="M99.5,173.53c-5.34-0.31-9.82-2.18-12.37-5.28c-0.84-1.02,0.36-8.78,0.37-8.86
						c0.18-1.14,0.62-10.81,0.42-14.24c-0.21-3.61-1.13-6.42-2.66-8.13c-0.69-0.77-6.51-6.41-7.07-6.86
						c-1.1-0.87-1.65-1.22-2.14-1.53c-0.61-0.39-1.09-0.69-2.29-1.77c-0.29-0.26-0.77-0.76-1.32-1.34c-0.9-0.94-2.02-2.12-2.83-2.79
						c-1.68-1.39-4.16-3.03-6.81-4.52c-2.44-1.37-3.64-1.65-6.44-2.09l-0.08-0.01c-0.32-0.05-0.93-0.14-1.3-0.28
						c-0.07-0.02-0.18-0.02-0.3-0.02c-0.3,0-0.76,0.01-1.14-0.43c-0.77-0.88-1.02-1.87-0.73-2.86c0.58-1.96,3.28-3.67,5.65-4.34
						c2.92-0.83,7.19-1.22,10.96,1.61c0.68,0.51,1.14,0.72,1.79,1.02c0.33,0.15,0.7,0.33,1.16,0.56c0.42,0.22,0.83,0.46,1.24,0.69
						c1.9,1.09,3.86,2.22,6.32,1.26c2.07-0.81,3.33-3.1,4.55-5.32l0.3-0.55c0.42-0.76,1.18-2.3,1.54-4.09
						c0.34-1.72-0.96-9.35-1.22-10.56c-0.52-2.53-1.03-4.46-1.53-6.33c-0.59-2.24-1.16-4.35-1.59-7.07
						c-0.27-1.7-0.41-3.45-0.55-5.13c-0.17-2.05-0.34-4.16-0.74-6.24c-0.2-1.06-0.19-2.77-0.19-4.01c0-0.34,0-0.64,0-0.89
						c-0.01-0.77,0.45-1.58,0.73-2.06c0.06-0.11,0.15-0.25,0.16-0.3c0.1-0.37,0.34-0.67,0.72-0.88c1.03-0.57,2.75-0.32,2.91-0.28
						c1.48,0.44,2.02,0.68,2.77,1.83c0.97,1.48,1.15,3.05,1.34,4.71c0.09,0.8,0.19,1.64,0.37,2.52c0.76,3.57,2.91,10.75,3.95,14.05
						c0.34,1.1,0.6,2.08,0.85,3.03c0.62,2.38,1.12,4.27,2.55,5.97c0.12,0.14,0.22,0.27,0.3,0.38c0.07,0.09,0.14,0.19,0.2,0.25
						c0.02-0.01,0.03-0.03,0.06-0.06c1.74-1.87,1.61-10.33,1.53-15.39c-0.02-1.56-0.05-2.91-0.02-3.84
						c0.02-0.67,0.04-1.89,0.07-3.33c0.06-3.78,0.15-8.95,0.35-9.96c0.33-1.7,1.02-2.86,2.05-3.44c1.06-0.6,2.41-0.59,4.12,0.03
						c1.34,0.49,1.53,1.35,1.68,1.98c0.03,0.16,0.07,0.3,0.11,0.43c0.31,0.82,0.34,0.91,0.3,1.29c-0.01,0.17-0.04,0.42-0.01,0.98
						c0.12,2.9,0.33,5.71,0.56,8.68c0.16,2.19,0.33,4.45,0.49,6.97c0.05,0.87,0.06,10.66-0.02,11.56c-0.09,1.09-0.25,1.94-0.39,2.69
						c-0.27,1.45-0.45,2.4,0.06,3.91c0.11,0.33,0.65,0.91,1.14,0.98c0.11,0.02,0.19,0.07,0.26,0.12c0.03,0.02,0.1,0.06,0.12,0.07
						c0,0,0.04-0.02,0.11-0.11c0.48-0.64,1.14-3.25,1.49-4.65c0.12-0.49,0.22-0.88,0.29-1.08c0.82-2.67,1.64-4.97,2.43-7.2
						c0.75-2.11,1.52-4.3,2.28-6.75c0.82-2.64,1.57-5.77,2.14-8.2c0.2-0.87,0.54-1.57,1.01-2.07c0.73-0.78,2.56-1.46,3.83-1.18
						c1.09,0.25,2.61,2.09,2.73,2.72c0.29,1.59,0.27,1.73,0.01,2.72c-0.06,0.24-0.14,0.54-0.23,0.94c-0.48,2.09-0.94,4.27-1.42,6.58
						c-0.43,2.04-0.87,4.16-1.34,6.25c-0.88,3.93-2.13,9-3.96,13.36c-0.24,0.57-0.63,1.77-0.81,2.38c-0.37,1.25-0.09,1.58,1.01,1.99
						c0.48,0.18,1.33-0.13,1.72-0.32c1.04-0.52,1.64-1.44,2.22-2.33c0.16-0.25,0.32-0.49,0.48-0.72c0.72-0.98,1.45-1.86,2.17-2.7
						c0.74-0.87,1.43-1.69,2.09-2.61c0.4-0.56,1.05-1.67,1.52-2.49c0.24-0.42,0.45-0.77,0.56-0.94c0.46-0.72,0.86-1.47,1.26-2.2
						c0.91-1.69,1.78-3.28,3.18-4.41c1.29-1.04,2.86-1.32,4.19-0.75c1.3,0.56,1.72,2.56,1.65,3.45c-0.11,1.44-0.46,2.1-0.94,3.01
						c-0.17,0.32-0.36,0.69-0.57,1.14c-0.5,1.09-1.38,2.67-2,3.76c-0.47,0.82-0.91,1.62-1.34,2.42c-1.06,1.93-2.06,3.76-3.38,5.77
						c-0.49,0.75-0.99,1.43-1.47,2.1c-1.36,1.87-2.64,3.64-3.49,6.34c-0.27,0.85-0.3,1.21-0.35,1.76c-0.06,0.65-0.13,1.53-0.62,3.66
						l-0.04,0.18c-1.69,7.38-3.49,12.54-5.34,15.36c-0.71,1.07-4.82,9.25-5.15,12.23c-0.44,3.97,0.87,10.97,1.99,14.5
						c1.47,4.63,1.86,6.87,1.34,7.73c-2.6,4.31-8.67,7.3-15.85,7.82C101.94,173.59,100.7,173.6,99.5,173.53z M54.91,115.06
						c0.11,0.01,0.22,0.02,0.34,0.06c0.3,0.11,0.9,0.2,1.16,0.24l0.08,0.01c2.9,0.46,4.14,0.75,6.69,2.18
						c2.69,1.51,5.21,3.18,6.93,4.6c0.85,0.7,1.98,1.89,2.89,2.85c0.54,0.57,1.01,1.06,1.28,1.3c1.15,1.03,1.61,1.33,2.19,1.7
						c0.48,0.31,1.07,0.69,2.2,1.57c0.61,0.48,6.44,6.13,7.17,6.95c1.67,1.87,2.62,4.76,2.85,8.59c0.2,3.46-0.24,13.26-0.43,14.41
						c-0.59,3.67-0.85,7.76-0.53,8.27c2.95,3.59,8.73,5.46,15.43,4.97c6.83-0.5,12.82-3.42,15.26-7.46c0.36-0.6-0.11-3-1.42-7.11
						c-1.09-3.45-2.49-10.55-2.02-14.81c0.35-3.15,4.52-11.42,5.27-12.56c1.24-1.88,3.16-6.03,5.24-15.11l0.04-0.18
						c0.48-2.08,0.55-2.93,0.61-3.56c0.05-0.57,0.09-0.99,0.38-1.92c0.88-2.82,2.2-4.63,3.6-6.56c0.48-0.66,0.97-1.34,1.46-2.07
						c1.3-1.98,2.3-3.79,3.35-5.71c0.44-0.8,0.88-1.6,1.35-2.43c0.62-1.08,1.49-2.64,1.97-3.7c0.21-0.47,0.41-0.84,0.58-1.17
						c0.45-0.87,0.75-1.44,0.86-2.73c0.06-0.72-0.31-2.32-1.2-2.7c-1.07-0.46-2.34-0.22-3.42,0.64c-1.28,1.03-2.11,2.56-2.99,4.18
						c-0.4,0.74-0.82,1.51-1.29,2.25c-0.11,0.17-0.3,0.51-0.54,0.92c-0.48,0.83-1.14,1.96-1.56,2.55c-0.68,0.95-1.38,1.78-2.13,2.66
						c-0.71,0.83-1.43,1.69-2.13,2.66c-0.16,0.21-0.31,0.45-0.46,0.69c-0.61,0.93-1.29,1.98-2.51,2.59
						c-0.23,0.12-1.45,0.69-2.33,0.35c-1.29-0.49-1.99-1.15-1.46-2.91c0.19-0.64,0.59-1.85,0.84-2.46
						c1.81-4.31,3.05-9.34,3.92-13.24c0.47-2.08,0.91-4.19,1.34-6.24c0.49-2.31,0.94-4.5,1.43-6.59c0.09-0.41,0.17-0.72,0.24-0.96
						c0.23-0.87,0.24-0.92-0.02-2.4c-0.08-0.33-1.36-1.94-2.15-2.12c-1.06-0.24-2.6,0.4-3.11,0.95c-0.38,0.41-0.66,0.99-0.83,1.73
						c-0.57,2.44-1.32,5.58-2.15,8.25c-0.76,2.47-1.54,4.66-2.29,6.78c-0.79,2.22-1.6,4.51-2.42,7.17
						c-0.06,0.19-0.15,0.57-0.27,1.04c-0.53,2.1-1.09,4.21-1.62,4.92c-0.24,0.32-0.65,0.62-1.25,0.22l-0.02-0.01
						c-0.81-0.16-1.51-0.96-1.68-1.48c-0.57-1.7-0.37-2.79-0.09-4.29c0.14-0.73,0.29-1.56,0.38-2.62
						c0.06-0.73,0.08-10.47,0.02-11.45c-0.15-2.52-0.32-4.78-0.49-6.96c-0.22-2.97-0.43-5.78-0.56-8.7c-0.03-0.61,0-0.91,0.01-1.08
						c0.02-0.22,0.02-0.22-0.26-0.97c-0.06-0.17-0.1-0.35-0.14-0.53c-0.13-0.59-0.24-1.09-1.2-1.44c-1.49-0.54-2.63-0.57-3.49-0.08
						c-0.83,0.47-1.4,1.46-1.69,2.93c-0.18,0.94-0.27,6.29-0.33,9.83c-0.02,1.44-0.05,2.67-0.07,3.34c-0.03,0.91-0.01,2.25,0.02,3.8
						c0.09,5.83,0.22,13.82-1.73,15.91c-0.15,0.16-0.37,0.35-0.65,0.34c0,0,0,0-0.01,0c-0.32-0.02-0.51-0.27-0.75-0.59
						c-0.08-0.1-0.17-0.23-0.29-0.36c-1.54-1.84-2.05-3.79-2.7-6.27c-0.25-0.94-0.5-1.92-0.84-3c-1.11-3.55-3.21-10.52-3.97-14.12
						c-0.19-0.92-0.29-1.77-0.39-2.59c-0.19-1.64-0.35-3.05-1.22-4.38c-0.61-0.93-0.96-1.1-2.36-1.52
						c-0.41-0.09-2.46-0.22-2.68,0.64c-0.03,0.12-0.11,0.25-0.23,0.47c-0.24,0.41-0.64,1.11-0.63,1.67c0,0.25,0,0.56,0,0.9
						c-0.01,1.21-0.02,2.87,0.17,3.86c0.41,2.12,0.58,4.26,0.75,6.33c0.14,1.67,0.28,3.4,0.54,5.08c0.42,2.67,0.98,4.77,1.57,6.99
						c0.5,1.87,1.01,3.81,1.54,6.37c0.02,0.08,1.63,8.77,1.22,10.86c-0.38,1.89-1.18,3.51-1.62,4.31l-0.3,0.55
						c-1.23,2.23-2.61,4.75-4.93,5.66c-2.79,1.09-5.01-0.18-6.97-1.31c-0.42-0.24-0.81-0.47-1.21-0.67
						c-0.45-0.23-0.81-0.4-1.13-0.55c-0.66-0.31-1.19-0.55-1.93-1.11c-3.52-2.64-7.54-2.27-10.3-1.49c-2.11,0.6-4.63,2.14-5.13,3.82
						c-0.22,0.75-0.04,1.45,0.57,2.15c0.15,0.17,0.29,0.18,0.57,0.17C54.76,115.05,54.83,115.05,54.91,115.06z"/>
				</g>
			</g>
			<g>
				<path class="st2" d="M128.56,107.21c0.5,0.25,4.39,2.2,6.63,3.45c0.16,0.09,0.49,0.28,0.83,0.62c0.33,0.34,1.06,1.24,1.11,3.32
					c0.05,1.8-0.47,2.18-0.82,4.37c-0.38,2.36,0.11,2.74-0.19,4.25c-0.44,2.26-1.96,3.73-3.43,5.09c-5.86,5.42-8.47,6.75-11.32,9.78
					c-2.03,2.15-3.11,4.13-5.27,8.1c-3.07,5.63-5.06,11.28-6.73,16.09c-2,5.75-1.78,6.08-2.65,6.9c-6.69,6.29-32.06,1.12-32.87-8.53
					c-0.18-2.11,3.26-9.14,6.51-15.14c1.59-2.94,4.31-7.46,4.52-12.85c0.01-0.33,0.02-0.65,0.02-0.8c0.03-3.88-0.66-6.24-1.33-9.44
					c-0.95-4.57-1.86-11.01-1.88-12.29c-0.07-0.53-0.19-1.33-0.35-2.29c-0.18-1.04-0.31-1.67-0.54-2.81
					c-0.45-2.23-0.67-3.35-0.74-3.9c-0.31-2.42-0.11-3.78-0.06-4.11c0.17-1.13,0.27-1.84,0.82-2.56c0.7-0.91,2.06-1.81,3.36-1.55
					c1.27,0.25,0.91,1.16,3.07,2.33c0.13,0.07,1.73,0.65,2.85,0.29c0.99-0.32,1.45-1.18,1.51-1.39c0.16-0.57,0.11-0.97,0.03-1.87
					c-0.08-0.94-0.11-1.88-0.19-2.81c-0.22-2.45-0.33-3.68-0.08-4.79c0.2-0.88,0.46-2.05,1.44-2.96c1.6-1.49,4.46-1.65,5.75-0.4
					c0.18,0.17,0.39,0.43,0.82,1.84c1.06,3.48,0.74,5.07,1.91,6.35c0.71,0.78,1.68,1.12,1.68,1.12c0.48,0.17,0.73,0.26,0.99,0.18
					c0.8-0.25,0.74-1.82,1.18-3.97c0.47-2.28,0.77-3.74,1.91-4.71c1.53-1.29,3.67-0.96,4.1-0.89c0.27,0.04,2.7,0.46,3.94,2.51
					c0.59,0.97,0.68,1.94,0.78,2.95c0.2,2.07-0.36,2.98,0.38,4.16c0.15,0.24,0.55,0.86,1.27,1.04c0.54,0.14,1.01-0.03,1.22-0.1
					c0.94-0.35,1.08-1.03,1.77-1.56c0.87-0.65,1.97-0.56,2.78-0.48c1.88,0.17,3.7,1.33,4.56,2.97c0.53,1,0.51,1.81,0.49,3.86
					c-0.04,4.46-0.05,6.69,0.04,8.43c0.16,2.94,0.66,5.24,0.99,6.68c0.46,2.06,1.2,3.64,1.46,5.12"/>
				<path class="st0" d="M128.73,106.87c1.56,0.78,3.12,1.57,4.67,2.39l1.16,0.62l0.58,0.31c0.19,0.1,0.39,0.21,0.6,0.35
					c0.4,0.27,0.75,0.63,1.01,1.05c0.26,0.41,0.43,0.86,0.55,1.31c0.12,0.45,0.18,0.91,0.21,1.37c0.03,0.45,0.03,0.91-0.03,1.38
					c-0.05,0.47-0.18,0.92-0.3,1.34c-0.12,0.42-0.24,0.83-0.33,1.24c-0.17,0.83-0.3,1.68-0.29,2.51c0,0.42,0.05,0.84,0.06,1.3
					c0.01,0.47-0.03,0.95-0.14,1.4c-0.19,0.91-0.58,1.77-1.09,2.53c-0.51,0.76-1.13,1.42-1.77,2.04c-1.28,1.21-2.58,2.38-3.91,3.52
					c-1.33,1.14-2.7,2.24-4.06,3.33c-1.36,1.09-2.69,2.19-3.87,3.44c-1.19,1.24-2.18,2.63-3.06,4.12c-0.88,1.49-1.71,3.03-2.53,4.56
					c-1.63,3.06-3.01,6.26-4.24,9.51c-0.62,1.63-1.2,3.27-1.77,4.91c-0.58,1.65-1.13,3.29-1.66,4.95l-0.4,1.25
					c-0.15,0.42-0.27,0.85-0.55,1.31c-0.14,0.22-0.32,0.43-0.49,0.59c-0.18,0.16-0.35,0.32-0.54,0.45
					c-0.37,0.29-0.76,0.53-1.17,0.75c-1.63,0.86-3.4,1.26-5.17,1.49c-3.54,0.43-7.1,0.15-10.57-0.5c-3.46-0.68-6.87-1.74-9.99-3.46
					c-1.55-0.87-3.04-1.9-4.25-3.27c-0.6-0.68-1.13-1.45-1.49-2.31c-0.17-0.43-0.33-0.88-0.4-1.34c-0.05-0.24-0.07-0.45-0.09-0.71
					c-0.01-0.27,0.02-0.51,0.05-0.74c0.16-0.93,0.45-1.76,0.76-2.6c0.31-0.83,0.65-1.64,1-2.45c0.71-1.61,1.48-3.18,2.26-4.75
					c0.79-1.56,1.6-3.11,2.44-4.65c0.84-1.54,1.69-3.05,2.4-4.62c0.71-1.57,1.31-3.19,1.68-4.86c0.4-1.67,0.5-3.37,0.45-5.09
					c-0.04-1.72-0.27-3.42-0.62-5.12c-0.35-1.69-0.75-3.41-1.06-5.14c-0.32-1.72-0.61-3.45-0.87-5.18c-0.13-0.87-0.25-1.73-0.37-2.6
					c-0.11-0.88-0.23-1.72-0.27-2.65l0,0.05l-0.29-1.9c-0.09-0.63-0.24-1.26-0.35-1.9l-0.75-3.8l-0.18-0.96
					c-0.06-0.33-0.09-0.66-0.13-0.99c-0.07-0.65-0.11-1.31-0.11-1.98c0-0.66,0.04-1.35,0.16-1.99c0.1-0.63,0.2-1.33,0.55-1.99
					c0.36-0.65,0.88-1.14,1.46-1.54c0.58-0.39,1.27-0.68,2.03-0.69c0.38,0,0.75,0.05,1.13,0.23c0.19,0.09,0.36,0.21,0.5,0.35
					c0.14,0.13,0.26,0.27,0.36,0.39c0.4,0.5,0.82,0.87,1.35,1.2c0.13,0.09,0.26,0.16,0.4,0.23c0.06,0.04,0.24,0.1,0.37,0.14
					c0.29,0.09,0.59,0.16,0.88,0.2c0.6,0.08,1.17,0.07,1.64-0.18c0.24-0.12,0.45-0.3,0.63-0.51c0.09-0.1,0.17-0.22,0.23-0.33
					c0.03-0.05,0.06-0.12,0.07-0.14c0.02-0.06,0.04-0.13,0.05-0.2c0.1-0.51-0.02-1.16-0.06-1.82l-0.12-1.94
					c-0.04-0.63-0.11-1.28-0.16-1.92c-0.05-0.65-0.1-1.3-0.1-1.97c0-0.33,0.01-0.67,0.05-1.02c0.04-0.35,0.12-0.68,0.19-1
					c0.15-0.65,0.38-1.32,0.76-1.92c0.38-0.6,0.92-1.1,1.53-1.45c1.22-0.69,2.67-0.93,4.05-0.57c0.34,0.09,0.68,0.24,1,0.44
					c0.16,0.1,0.3,0.22,0.44,0.35c0.15,0.14,0.28,0.34,0.36,0.5c0.32,0.65,0.49,1.27,0.67,1.9c0.37,1.25,0.6,2.57,0.84,3.81
					c0.13,0.62,0.29,1.2,0.61,1.66c0.31,0.47,0.78,0.85,1.3,1.13c0.27,0.15,0.52,0.25,0.82,0.35c0.14,0.05,0.27,0.08,0.33,0.07
					c0.07,0,0.12-0.03,0.17-0.08c0.12-0.11,0.22-0.39,0.29-0.68c0.07-0.29,0.12-0.6,0.17-0.92c0.1-0.63,0.19-1.28,0.32-1.93
					c0.13-0.64,0.26-1.27,0.42-1.91c0.16-0.64,0.36-1.29,0.69-1.91c0.33-0.62,0.84-1.18,1.45-1.54c0.61-0.38,1.3-0.58,1.98-0.67
					c0.69-0.09,1.37-0.05,2.05,0.06c1.34,0.27,2.63,0.9,3.57,1.95c0.46,0.53,0.82,1.15,1.02,1.82c0.21,0.67,0.28,1.34,0.34,1.98
					c0.07,0.66,0.06,1.35,0.02,1.99c-0.04,0.65-0.08,1.25,0.14,1.73c0.22,0.5,0.61,0.99,1.08,1.15c0.23,0.08,0.49,0.1,0.75,0.05
					c0.13-0.03,0.26-0.07,0.39-0.12c0.13-0.05,0.24-0.11,0.35-0.18c0.22-0.15,0.39-0.36,0.6-0.61c0.21-0.25,0.46-0.54,0.77-0.75
					c0.62-0.44,1.38-0.56,2.06-0.55c0.35,0,0.67,0.03,1.01,0.07c0.34,0.03,0.68,0.11,1.01,0.2c0.66,0.2,1.29,0.49,1.85,0.88
					c0.57,0.38,1.07,0.87,1.48,1.42c0.2,0.28,0.39,0.58,0.53,0.9c0.15,0.32,0.26,0.67,0.32,1.01c0.12,0.69,0.1,1.35,0.1,2
					l-0.02,1.94l-0.02,3.87c-0.01,2.58,0.1,5.13,0.54,7.65c0.39,2.51,1.33,4.97,1.61,7.56l-0.01,0c-0.3-1.26-0.77-2.46-1.18-3.69
					c-0.42-1.22-0.82-2.47-1.08-3.75c-0.28-1.28-0.43-2.58-0.53-3.88c-0.09-1.3-0.1-2.6-0.1-3.9l0.02-3.88l0.02-1.94
					c0-0.64,0.01-1.28-0.09-1.86c-0.1-0.58-0.36-1.11-0.71-1.59c-0.36-0.48-0.8-0.9-1.3-1.24c-0.5-0.35-1.06-0.6-1.63-0.77
					c-0.29-0.08-0.59-0.15-0.88-0.17c-0.31-0.03-0.63-0.06-0.93-0.06c-0.6-0.01-1.18,0.1-1.62,0.42c-0.23,0.15-0.41,0.36-0.61,0.6
					c-0.2,0.25-0.44,0.54-0.76,0.76c-0.16,0.11-0.33,0.2-0.5,0.27c-0.17,0.07-0.34,0.12-0.53,0.16c-0.37,0.08-0.79,0.06-1.16-0.08
					c-0.38-0.13-0.7-0.38-0.94-0.65c-0.25-0.28-0.43-0.57-0.59-0.92c-0.15-0.34-0.22-0.73-0.23-1.08c-0.01-0.35,0.01-0.69,0.03-1.01
					c0.04-0.64,0.04-1.25-0.02-1.87c-0.06-0.64-0.13-1.26-0.31-1.83c-0.17-0.57-0.48-1.08-0.87-1.53c-0.79-0.88-1.94-1.46-3.12-1.69
					c-1.19-0.2-2.48-0.11-3.47,0.5c-0.5,0.3-0.89,0.73-1.17,1.25c-0.28,0.52-0.46,1.12-0.61,1.73c-0.15,0.61-0.28,1.24-0.41,1.87
					c-0.13,0.62-0.22,1.25-0.32,1.89c-0.05,0.32-0.1,0.65-0.18,0.98c-0.09,0.33-0.17,0.7-0.51,1.06c-0.18,0.17-0.43,0.29-0.69,0.3
					c-0.26,0.01-0.45-0.06-0.62-0.11c-0.32-0.1-0.66-0.24-0.96-0.4c-0.6-0.33-1.18-0.77-1.59-1.39c-0.42-0.61-0.59-1.31-0.73-1.94
					c-0.25-1.29-0.47-2.53-0.83-3.75c-0.18-0.6-0.36-1.24-0.61-1.75c-0.07-0.13-0.12-0.21-0.2-0.29c-0.1-0.09-0.2-0.18-0.32-0.25
					c-0.23-0.15-0.49-0.26-0.77-0.34c-1.12-0.3-2.41-0.09-3.43,0.49c-0.51,0.3-0.94,0.7-1.25,1.19c-0.31,0.49-0.51,1.06-0.65,1.67
					c-0.07,0.31-0.14,0.61-0.18,0.9c-0.04,0.3-0.05,0.61-0.05,0.92c0,0.62,0.05,1.26,0.1,1.9c0.05,0.64,0.12,1.28,0.16,1.94
					l0.12,1.93l0.08,0.97c0.03,0.33,0.04,0.7-0.04,1.07c-0.02,0.09-0.04,0.18-0.07,0.27c-0.04,0.13-0.09,0.21-0.13,0.3
					c-0.09,0.17-0.2,0.32-0.32,0.46c-0.24,0.28-0.54,0.53-0.87,0.7c-0.33,0.18-0.72,0.28-1.08,0.31c-0.37,0.03-0.72,0.01-1.06-0.04
					c-0.34-0.05-0.68-0.13-1.01-0.23c-0.17-0.06-0.31-0.09-0.53-0.21c-0.15-0.09-0.3-0.16-0.44-0.26c-0.29-0.18-0.57-0.39-0.83-0.62
					c-0.26-0.23-0.5-0.5-0.71-0.75c-0.1-0.13-0.2-0.23-0.29-0.32c-0.09-0.08-0.18-0.15-0.29-0.2c-0.21-0.1-0.5-0.15-0.76-0.15
					c-0.54,0.01-1.1,0.23-1.58,0.55c-0.48,0.33-0.92,0.76-1.19,1.24c-0.27,0.48-0.36,1.09-0.46,1.72c-0.11,0.63-0.14,1.23-0.14,1.86
					c0,0.63,0.04,1.26,0.11,1.89c0.03,0.32,0.07,0.63,0.12,0.93l0.17,0.94l0.75,3.8c0.12,0.64,0.26,1.27,0.36,1.91l0.3,1.93l0,0.01
					l0,0.04c0.04,0.82,0.16,1.7,0.27,2.56c0.11,0.86,0.24,1.72,0.37,2.58c0.26,1.72,0.55,3.44,0.87,5.15
					c0.31,1.71,0.7,3.4,1.07,5.12c0.36,1.72,0.6,3.49,0.64,5.27c0.05,1.76-0.06,3.57-0.47,5.31c-0.39,1.74-1.01,3.42-1.73,5.03
					c-0.73,1.61-1.59,3.15-2.42,4.68c-0.83,1.53-1.64,3.08-2.42,4.63c-0.78,1.55-1.54,3.12-2.24,4.71c-0.35,0.79-0.68,1.59-0.98,2.4
					c-0.29,0.8-0.58,1.63-0.71,2.43c-0.03,0.19-0.05,0.39-0.04,0.56c0.01,0.18,0.04,0.39,0.08,0.59c0.07,0.4,0.2,0.78,0.35,1.16
					c0.32,0.75,0.78,1.44,1.34,2.07c1.11,1.25,2.53,2.24,4.02,3.08c3.01,1.65,6.35,2.69,9.73,3.35c3.39,0.64,6.88,0.9,10.28,0.48
					c1.69-0.22,3.38-0.62,4.85-1.4c0.36-0.2,0.72-0.41,1.04-0.66c0.32-0.25,0.64-0.52,0.81-0.8c0.18-0.29,0.32-0.7,0.45-1.11
					l0.4-1.24c0.53-1.67,1.1-3.33,1.68-4.98c0.58-1.65,1.17-3.3,1.79-4.93c1.25-3.27,2.65-6.5,4.31-9.6
					c0.84-1.54,1.66-3.07,2.56-4.59c0.9-1.51,1.95-2.99,3.19-4.26c1.22-1.29,2.6-2.42,3.96-3.51c1.37-1.09,2.73-2.17,4.05-3.3
					c1.32-1.12,2.62-2.29,3.88-3.48c0.62-0.59,1.2-1.22,1.66-1.9c0.47-0.69,0.81-1.44,0.98-2.24c0.09-0.4,0.13-0.8,0.12-1.2
					c-0.01-0.41-0.06-0.86-0.06-1.32c0-0.92,0.13-1.81,0.32-2.68c0.1-0.44,0.22-0.87,0.34-1.29c0.12-0.42,0.23-0.81,0.28-1.21
					c0.09-0.8,0.04-1.67-0.15-2.45c-0.2-0.79-0.59-1.49-1.24-1.92c-0.15-0.11-0.34-0.2-0.53-0.31l-0.57-0.31l-1.15-0.62
					c-1.54-0.81-3.09-1.61-4.65-2.39L128.73,106.87z"/>
			</g>
		</g>
	</g>
	<g>
		<g>
			<path class="st2" d="M34.98,106.93C18.22,88.77,19.36,60.36,37.52,43.6c8.3-7.66,19.07-11.88,30.31-11.88
				c0.62,0,1.25,0.01,1.88,0.04c11.53,0.46,22.26,5.25,30.29,13.5c8.03-8.24,18.76-13.03,30.29-13.5c0.62-0.02,1.23-0.04,1.85-0.04
				c11.26,0,22.04,4.22,30.34,11.88c18.16,16.76,19.3,45.16,2.55,63.33L100,177.41L34.98,106.93z M67.87,36.73
				c-10.01,0-19.58,3.75-26.96,10.55c-16.13,14.89-17.15,40.13-2.26,56.26l61.35,66.5l61.35-66.5
				c14.89-16.14,13.87-41.37-2.26-56.26c-7.38-6.8-16.95-10.55-26.96-10.55c-0.54,0-1.09,0.01-1.64,0.03
				c-10.63,0.43-20.45,4.97-27.66,12.78L100,52.6l-2.83-3.06c-7.21-7.82-17.04-12.36-27.66-12.78
				C68.96,36.74,68.42,36.73,67.87,36.73z"/>
			<path class="st0" d="M67.84,32.22c0.62,0,1.24,0.01,1.86,0.04c11.59,0.47,22.33,5.33,30.31,13.72
				c7.98-8.38,18.71-13.25,30.31-13.72c0.61-0.02,1.22-0.04,1.83-0.04c11.16,0,21.75,4.13,30.01,11.75
				c17.96,16.57,19.09,44.66,2.52,62.62L100,176.67l-64.66-70.08C18.77,88.63,19.9,60.54,37.86,43.97
				C46.11,36.37,56.67,32.22,67.84,32.22 M100,51.87l-2.46-2.66c-7.3-7.92-17.25-12.51-28.01-12.95c-0.55-0.02-1.11-0.03-1.66-0.03
				c-10.15,0-19.79,3.76-27.3,10.68c-16.34,15.07-17.37,40.63-2.29,56.97L100,170.77l61.72-66.89
				c15.07-16.34,14.04-41.89-2.29-56.97c-7.51-6.93-17.15-10.68-27.3-10.68c-0.55,0-1.1,0.01-1.66,0.03
				c-10.76,0.43-20.71,5.03-28.01,12.95L100,51.87 M67.84,31.22c-11.37,0-22.26,4.27-30.65,12.01
				c-18.36,16.94-19.52,45.67-2.58,64.03l64.66,70.08l0.73,0.8l0.73-0.8l64.66-70.08c16.94-18.37,15.79-47.09-2.58-64.03
				c-8.4-7.75-19.29-12.01-30.68-12.01c-0.62,0-1.25,0.01-1.87,0.04c-11.48,0.46-22.19,5.17-30.27,13.28
				c-8.07-8.11-18.78-12.82-30.27-13.28C69.1,31.24,68.47,31.22,67.84,31.22L67.84,31.22z M100,53.34l0.73-0.8l2.46-2.66
				c7.12-7.72,16.82-12.2,27.31-12.62c0.54-0.02,1.08-0.03,1.62-0.03c9.89,0,19.34,3.7,26.62,10.42
				c15.93,14.7,16.94,39.62,2.24,55.55L100,169.3l-60.98-66.1c-14.7-15.93-13.7-40.85,2.24-55.55c7.28-6.72,16.74-10.42,26.62-10.42
				c0.54,0,1.09,0.01,1.62,0.03c10.49,0.42,20.19,4.91,27.31,12.62l2.46,2.66L100,53.34L100,53.34z"/>
		</g>
	</g>
</g>
</svg>
